HIERARCHY
ROOT Hips
{
    OFFSET 0.000000 0.000000 0.000000
    CHANNELS 6 Xposition Yposition Zposition Zrotation Xrotation Yrotation
    JOINT Spine
    {
        OFFSET -0.000000 8.603107 0.000000
        CHANNELS 3 Zrotation Xrotation Yrotation
        JOINT Spine1
        {
            OFFSET -0.000000 23.906662 0.000000
            CHANNELS 3 Zrotation Xrotation Yrotation
            JOINT Neck
            {
                OFFSET -0.000000 23.808481 2.164407
                CHANNELS 3 Zrotation Xrotation Yrotation
                JOINT Head
                {
                    OFFSET -0.000000 14.688231 -2.098319
                    CHANNELS 3 Zrotation Xrotation Yrotation
                    End Site
                    {
                        OFFSET -0.000000 26.228985 0.000000
                    }
                }
            }
            JOINT LeftShoulder
            {
                OFFSET 4.178941 22.658146 -0.129871
                CHANNELS 3 Zrotation Xrotation Yrotation
                JOINT LeftArm
                {
                    OFFSET 9.497952 0.000000 0.000000
                    CHANNELS 3 Zrotation Xrotation Yrotation
                    JOINT LeftForeArm
                    {
                        OFFSET 38.855015 0.000000 0.000000
                        CHANNELS 3 Zrotation Xrotation Yrotation
                        JOINT LeftHand
                        {
                            OFFSET 24.940550 0.000000 0.000000
                            CHANNELS 3 Zrotation Xrotation Yrotation
                            End Site
                            {
                                OFFSET 15.737392 0.000000 0.000000
                            }
                        }
                    }
                }
            }
            JOINT RightShoulder
            {
                OFFSET -4.145384 22.658146 -0.129871
                CHANNELS 3 Zrotation Xrotation Yrotation
                JOINT RightArm
                {
                    OFFSET -9.497952 0.000000 0.000000
                    CHANNELS 3 Zrotation Xrotation Yrotation
                    JOINT RightForeArm
                    {
                        OFFSET -38.855015 0.000000 0.000000
                        CHANNELS 3 Zrotation Xrotation Yrotation
                        JOINT RightHand
                        {
                            OFFSET -24.940550 0.000000 0.000000
                            CHANNELS 3 Zrotation Xrotation Yrotation
                            End Site
                            {
                                OFFSET -15.737392 0.000000 0.000000
                            }
                        }
                    }
                }
            }
        }
    }
    JOINT LeftUpLeg
    {
        OFFSET 10.491594 0.000000 0.000000
        CHANNELS 3 Zrotation Xrotation Yrotation
        JOINT LeftLeg
        {
            OFFSET -0.000000 -46.080647 0.000000
            CHANNELS 3 Zrotation Xrotation Yrotation
            JOINT LeftFoot
            {
                OFFSET -0.000000 -50.184704 0.000000
                CHANNELS 3 Zrotation Xrotation Yrotation
                JOINT LeftToeBase
                {
                    OFFSET -0.000000 -6.819536 15.737392
                    CHANNELS 3 Zrotation Xrotation Yrotation
                    End Site
                    {
                        OFFSET -0.000000 0.000000 4.196638
                    }
                }
            }
        }
    }
    JOINT RightUpLeg
    {
        OFFSET -10.491594 0.000000 0.000000
        CHANNELS 3 Zrotation Xrotation Yrotation
        JOINT RightLeg
        {
            OFFSET -0.000000 -46.080647 0.000000
            CHANNELS 3 Zrotation Xrotation Yrotation
            JOINT RightFoot
            {
                OFFSET -0.000000 -50.184704 0.000000
                CHANNELS 3 Zrotation Xrotation Yrotation
                JOINT RightToeBase
                {
                    OFFSET -0.000000 -6.819536 15.737392
                    CHANNELS 3 Zrotation Xrotation Yrotation
                    End Site
                    {
                        OFFSET -0.000000 0.000000 4.196638
                    }
                }
            }
        }
    }
}
MOTION
Frames:    5
Frame Time:    0.008333
-95.912209    106.683182    41.427143    -5.275202    0.110295    89.885468    -3.350276    -8.786335    2.176778    8.476705    5.499116    2.026338    7.812634    21.728395    0.157946    -4.583833    -8.914277    -0.426376    -8.266201    10.782357    -10.743579    -59.383900    30.826054    1.158680    10.021140    -13.521317    -52.712173    -13.957929    -9.363755    6.025436    2.625081    7.821942    -16.114515    41.675301    51.613956    24.536953    -11.527448    -9.962196    40.693085    5.360666    -5.873404    -3.457560    -0.154411    -18.316029    -4.659941    -4.546081    60.618954    2.539688    -10.180813    21.644411    2.230183    0.000000    0.000000    0.000000    -0.449396    -13.267097    4.700661    14.373168    53.185875    -9.025629    2.373187    11.895833    -16.772835    0.000000    0.000000    0.000000    
-95.330070    107.267258    41.395454    -5.418905    0.027663    90.079407    -2.678364    -7.751125    2.035915    7.619131    4.990770    1.884837    7.608737    21.617048    0.549376    -4.579215    -9.779267    -0.070466    -8.899028    11.539824    -10.899694    -58.252281    31.302292    -0.087193    8.944865    -14.034317    -49.278664    -12.966516    -10.571623    4.998954    3.831028    8.247224    -14.546462    40.774288    51.367275    25.362944    -10.602064    -10.103141    37.066124    5.470771    -6.714243    -2.909259    -0.048364    -20.090626    -4.314705    -4.674184    60.926884    3.209221    -9.806274    21.021503    0.912656    0.000000    0.000000    0.000000    -0.595076    -15.001323    4.405855    15.613543    54.134159    -10.317619    -0.359813    11.005654    -17.392729    0.000000    0.000000    0.000000    
-94.771820    107.743576    41.329144    -5.573356    0.086687    89.896843    -2.143290    -6.943328    2.192829    6.693975    5.061767    2.026627    7.644855    20.819304    0.812680    -4.471788    -10.184906    0.155053    -8.763656    11.985726    -11.413603    -57.696152    31.337984    -1.502843    7.816003    -14.114081    -45.855083    -11.981997    -11.242104    3.508275    5.095263    8.386621    -13.371013    39.266922    51.717026    26.529118    -9.690045    -10.673612    33.948467    4.894266    -7.856057    -2.577559    0.061568    -21.652180    -3.377163    -4.451792    60.500946    3.341474    -10.412547    20.256659    -0.013251    0.000000    0.000000    0.000000    -0.940643    -16.796143    3.670941    16.076025    54.945652    -10.754313    -2.392130    9.979088    -17.460222    0.000000    0.000000    0.000000    
-94.081299    108.160950    41.232929    -5.460037    0.245876    89.600540    -1.748831    -5.984614    2.413496    5.922973    5.301804    2.230406    7.591575    19.725122    1.026713    -4.445262    -10.194173    0.300725    -9.084496    12.117376    -11.974085    -56.882240    32.294811    -2.351381    6.443795    -14.827211    -43.014858    -10.657440    -12.596087    2.635385    6.218331    8.646186    -12.151230    37.594902    52.084702    27.835730    -8.882128    -11.247235    30.938053    4.390013    -8.898365    -2.018057    0.167370    -22.598793    -1.915896    -3.670733    59.332985    2.453248    -10.736967    18.981779    -0.889888    0.000000    0.000000    0.000000    -1.354102    -18.009007    2.899556    15.928144    54.945042    -11.004635    -3.227324    8.618317    -17.084463    0.000000    0.000000    0.000000    
-93.391800    108.493629    41.213196    -5.302528    0.146233    89.649635    -1.353611    -5.351338    2.450672    5.490523    6.253392    2.213781    7.349426    17.877527    1.264299    -4.333821    -9.584174    0.457340    -8.881373    12.371352    -12.230922    -55.797169    33.367363    -4.316839    4.781829    -15.508741    -40.318222    -9.082838    -13.942225    1.726295    6.728675    8.548409    -11.282299    35.561386    53.225086    29.871410    -8.512934    -11.872873    28.326405    4.077558    -9.828953    -1.996215    0.482160    -23.517986    -0.635897    -2.822152    57.985321    0.541826    -11.718956    17.369587    -0.485790    0.000000    0.000000    0.000000    -1.452625    -18.814621    1.127742    14.278249    54.251705    -10.030612    -3.420108    7.237990    -16.294203    0.000000    0.000000    0.000000    
